<?xml version="1.0" encoding="UTF-8"?>
<!DOCTYPE svg PUBLIC "-//W3C//DTD SVG 1.1//EN" "http://www.w3.org/Graphics/SVG/1.1/DTD/svg11.dtd">
<!-- Creator: CorelDRAW 2019 (64-Bit) -->
<svg xmlns="http://www.w3.org/2000/svg" xml:space="preserve" width="1000px" height="1000px" version="1.1" shape-rendering="geometricPrecision" text-rendering="geometricPrecision" image-rendering="optimizeQuality" fill-rule="evenodd" clip-rule="evenodd"
viewBox="0 0 64.19 64.19"
 xmlns:xlink="http://www.w3.org/1999/xlink">
 <g id="Layer_x0020_1">
  <metadata id="CorelCorpID_0Corel-Layer"/>
  <g id="_3027139566848">
   <rect fill="none" width="64.19" height="64.19"/>
   <path fill="white" fill-rule="nonzero" d="M54.01 31.61c-0.07,0.37 -0.16,0.74 -0.29,1.1l-4.45 12.72c-0.76,2.17 -1.73,4.29 -3.13,5.93 -1.62,1.89 -3.72,3.12 -6.57,3.12l-14.95 0c-2.85,0 -4.95,-1.23 -6.57,-3.12 -1.41,-1.64 -2.37,-3.76 -3.13,-5.93l-4.46 -12.72c-0.12,-0.36 -0.22,-0.73 -0.28,-1.1l5 0 4.28 12.23c0.59,1.69 1.3,3.28 2.25,4.39 0.74,0.86 1.67,1.42 2.91,1.42l14.95 0c1.24,0 2.17,-0.56 2.91,-1.42 0.95,-1.11 1.65,-2.7 2.24,-4.39l4.29 -12.23 5 0zm-46.62 -5.91l0 0c0,-1.57 1.28,-2.85 2.85,-2.85l8.72 0c0,-3.63 1.47,-6.91 3.85,-9.29 2.37,-2.38 5.66,-3.85 9.28,-3.85 3.63,0 6.92,1.47 9.29,3.85 2.38,2.38 3.85,5.66 3.85,9.29l8.72 0c1.57,0 2.85,1.28 2.85,2.85l0 0c0,1.57 -1.28,2.85 -2.85,2.85l-43.71 0c-1.57,0 -2.85,-1.28 -2.85,-2.85zm16.4 -2.85l16.61 0c0,-2.3 -0.93,-4.37 -2.43,-5.88 -1.5,-1.5 -3.58,-2.43 -5.88,-2.43 -2.29,0 -4.37,0.93 -5.87,2.43 -1.5,1.51 -2.43,3.58 -2.43,5.88z"/>
  </g>
 </g>
</svg>
