<?xml version="1.0" encoding="UTF-8"?>
<!DOCTYPE svg PUBLIC "-//W3C//DTD SVG 1.1//EN" "http://www.w3.org/Graphics/SVG/1.1/DTD/svg11.dtd">
<!-- Creator: CorelDRAW 2019 (64-Bit) -->
<svg xmlns="http://www.w3.org/2000/svg" xml:space="preserve" width="1000px" height="1000px" version="1.1" shape-rendering="geometricPrecision" text-rendering="geometricPrecision" image-rendering="optimizeQuality" fill-rule="evenodd" clip-rule="evenodd"
viewBox="0 0 75.15 75.15"
 xmlns:xlink="http://www.w3.org/1999/xlink">
 <g id="Layer_x0020_1">
  <metadata id="CorelCorpID_0Corel-Layer"/>
  <g id="_3027139552224">
   <rect fill="none" width="75.15" height="75.15"/>
   <path fill="white" d="M34.21 52.87l0 0 25.36 -25.36c1.43,-1.43 1.43,-3.79 0,-5.23l0 0c-1.44,-1.43 -3.8,-1.43 -5.23,0l-22.74 22.74 -10.79 -10.78c-1.43,-1.44 -3.79,-1.44 -5.22,0l0 0c-1.44,1.44 -1.44,3.79 0,5.23l13.39 13.4c0.2,0.2 0.43,0.37 0.66,0.52l0 0c0.31,0.19 0.64,0.34 0.99,0.43l0 0c0.32,0.08 0.64,0.13 0.97,0.13 0.03,0 0.06,0 0.09,-0.01l0 0c0.06,0 0.11,0 0.17,0l0 0c0.03,-0.01 0.06,-0.01 0.09,-0.01l0 0c0.21,-0.02 0.41,-0.06 0.62,-0.11l0 0c0.08,-0.02 0.17,-0.05 0.25,-0.08l0 0c0.03,-0.01 0.06,-0.02 0.09,-0.03l0 0c0.05,-0.02 0.11,-0.04 0.16,-0.07l0 0c0.09,-0.03 0.17,-0.07 0.25,-0.12l0 0c0.03,-0.01 0.05,-0.02 0.08,-0.04l0 0c0.02,-0.01 0.05,-0.03 0.08,-0.04l0 0c0.02,-0.02 0.05,-0.04 0.08,-0.05l0 0c0.02,-0.02 0.05,-0.03 0.07,-0.05l0 0c0.03,-0.02 0.05,-0.03 0.08,-0.05l0 0c0.02,-0.02 0.05,-0.04 0.07,-0.06l0 0c0.03,-0.01 0.05,-0.03 0.08,-0.05l0 0c0.02,-0.02 0.05,-0.04 0.07,-0.06l0 0c0.03,-0.02 0.05,-0.04 0.07,-0.06l0 0c0.03,-0.02 0.05,-0.04 0.07,-0.06 0.03,-0.02 0.05,-0.04 0.07,-0.07l0 0c0.03,-0.02 0.05,-0.04 0.07,-0.06z"/>
  </g>
 </g>
</svg>
