<?xml version="1.0" encoding="UTF-8"?>
<!DOCTYPE svg PUBLIC "-//W3C//DTD SVG 1.1//EN" "http://www.w3.org/Graphics/SVG/1.1/DTD/svg11.dtd">
<!-- Creator: CorelDRAW 2019 (64-Bit) -->
<svg xmlns="http://www.w3.org/2000/svg" xml:space="preserve" width="1000px" height="1000px" version="1.1" shape-rendering="geometricPrecision" text-rendering="geometricPrecision" image-rendering="optimizeQuality" fill-rule="evenodd" clip-rule="evenodd"
viewBox="0 0 194.49 194.49"
 xmlns:xlink="http://www.w3.org/1999/xlink">
 <g id="Layer_x0020_1">
  <metadata id="CorelCorpID_0Corel-Layer"/>
  <g id="_3026356478928">
   <rect fill="none" width="194.49" height="194.49"/>
   <path fill="black" d="M97.24 27.2l0 0c5.27,0 9.57,4.31 9.57,9.57l0 50.91 50.91 0c5.26,0 9.57,4.3 9.57,9.56l0 0c0,5.27 -4.31,9.57 -9.57,9.57l-50.91 0 0 50.91c0,5.26 -4.3,9.57 -9.57,9.57l0 0c-5.26,0 -9.56,-4.31 -9.56,-9.57l0 -50.91 -50.91 0c-5.26,0 -9.57,-4.3 -9.57,-9.57l0 0c0,-5.26 4.31,-9.56 9.57,-9.56l50.91 0 0 -50.91c0,-5.26 4.3,-9.57 9.56,-9.57z"/>
  </g>
 </g>
</svg>
