<?xml version="1.0" encoding="UTF-8"?>
<!DOCTYPE svg PUBLIC "-//W3C//DTD SVG 1.1//EN" "http://www.w3.org/Graphics/SVG/1.1/DTD/svg11.dtd">
<!-- Creator: CorelDRAW 2019 (64-Bit) -->
<svg xmlns="http://www.w3.org/2000/svg" xml:space="preserve" width="1000px" height="1000px" version="1.1" shape-rendering="geometricPrecision" text-rendering="geometricPrecision" image-rendering="optimizeQuality" fill-rule="evenodd" clip-rule="evenodd"
viewBox="0 0 109.39 109.39"
 xmlns:xlink="http://www.w3.org/1999/xlink">
 <g id="Layer_x0020_1">
  <metadata id="CorelCorpID_0Corel-Layer"/>
  <g id="_3026920219232">
   <rect fill="none" width="109.39" height="109.39"/>
   <path fill="black" d="M15.3 54.69l0 0 0 0 0 0 0 0 0 0 0 0c0,-0.04 0,-0.08 0,-0.12l0 0 0 -0.01 0 0 0 0 0 0 0 -0.01 0 0 0 0c0,-0.04 0,-0.08 0.01,-0.11l0 0 0 -0.01 0 0 0 0 0 -0.01 0 0 0 0 0 0 0 0 0 0 0 -0.01 0 0 0 0c0,-0.03 0,-0.07 0,-0.1l0 0 0.01 -0.03 0 0 0 0 0.01 -0.1 0 0c0,-0.05 0,-0.09 0.01,-0.13l0 0c0,-0.04 0.01,-0.09 0.02,-0.13l0 0c0,-0.04 0.01,-0.08 0.02,-0.13l0 0c0,-0.04 0.01,-0.08 0.02,-0.12l0 -0.01c0.01,-0.04 0.02,-0.08 0.02,-0.12l0 0c0.01,-0.04 0.02,-0.09 0.03,-0.13l0 0c0.01,-0.04 0.02,-0.08 0.04,-0.12l0 0c0.01,-0.05 0.02,-0.09 0.03,-0.13l0 0c0.01,-0.04 0.03,-0.08 0.04,-0.12l0 0c0.01,-0.05 0.03,-0.09 0.04,-0.13l0 0c0.02,-0.04 0.03,-0.08 0.05,-0.12l0 0c0.01,-0.04 0.03,-0.08 0.04,-0.12l0 0c0.02,-0.04 0.04,-0.08 0.05,-0.12l0 0c0.02,-0.04 0.04,-0.08 0.06,-0.12l0 0c0.02,-0.04 0.03,-0.08 0.05,-0.12l0 0c0.02,-0.04 0.04,-0.08 0.06,-0.12l0 0c0.02,-0.04 0.05,-0.08 0.07,-0.12l0 0c0.02,-0.04 0.04,-0.07 0.06,-0.11l0 0c0.02,-0.04 0.05,-0.08 0.07,-0.12l0 0c0.02,-0.03 0.05,-0.07 0.07,-0.11l0 0c0.03,-0.04 0.05,-0.07 0.08,-0.11l0 0c0.02,-0.04 0.05,-0.07 0.08,-0.11 0.02,-0.04 0.05,-0.07 0.08,-0.11 0.03,-0.03 0.05,-0.07 0.08,-0.1l0 0c0.03,-0.04 0.06,-0.07 0.09,-0.11 0.03,-0.03 0.06,-0.07 0.09,-0.1 0.03,-0.04 0.06,-0.07 0.09,-0.1l0 0c0.04,-0.04 0.07,-0.07 0.1,-0.1l20.83 -20.84c2.1,-2.09 5.52,-2.09 7.62,0l0 0c2.09,2.1 2.09,5.52 0,7.62l-11.65 11.64 55.04 0c2.96,0 5.38,2.42 5.38,5.38l0 0c0,2.96 -2.42,5.39 -5.38,5.39l-55.04 0 11.65 11.64c2.09,2.1 2.09,5.52 0,7.61l0 0c-2.1,2.1 -5.52,2.1 -7.62,0l-20.83 -20.83c-0.03,-0.03 -0.06,-0.07 -0.1,-0.1l0 0c-0.09,-0.1 -0.18,-0.2 -0.27,-0.31l0 0c-0.11,-0.14 -0.22,-0.28 -0.32,-0.43l0 0c-0.53,-0.82 -0.82,-1.75 -0.87,-2.69l0 0c-0.01,-0.09 -0.01,-0.18 -0.01,-0.28l0 0z"/>
  </g>
 </g>
</svg>
