<?xml version="1.0" encoding="UTF-8"?>
<!DOCTYPE svg PUBLIC "-//W3C//DTD SVG 1.1//EN" "http://www.w3.org/Graphics/SVG/1.1/DTD/svg11.dtd">
<!-- Creator: CorelDRAW 2019 (64-Bit) -->
<svg xmlns="http://www.w3.org/2000/svg" xml:space="preserve" width="1000px" height="1000px" version="1.1" shape-rendering="geometricPrecision" text-rendering="geometricPrecision" image-rendering="optimizeQuality" fill-rule="evenodd" clip-rule="evenodd"
viewBox="0 0 89.75 89.75"
 xmlns:xlink="http://www.w3.org/1999/xlink">
 <g id="Layer_x0020_1">
  <metadata id="CorelCorpID_0Corel-Layer"/>
  <rect fill="none" width="89.75" height="89.75"/>
  <path fill="black" d="M77.2 44.88l0 0 0 0 0 -0.01 0 0 0 0 0 0c0,-0.03 0,-0.07 0,-0.1l0 0 0 0 0 0 0 -0.01 0 0 0 0 0 0 0 0c0,-0.03 0,-0.06 -0.01,-0.1l0 0 0 0 0 0 0 0 0 -0.01 0 0 0 0 0 0 0 0 0 0 0 0 0 -0.01 0 0c0,-0.03 0,-0.05 0,-0.08l0 0 0 -0.02 0 0 0 0 -0.01 -0.09 0 0c0,-0.03 -0.01,-0.07 -0.01,-0.1l0 0c-0.01,-0.04 -0.01,-0.07 -0.02,-0.11l0 0c0,-0.03 -0.01,-0.07 -0.01,-0.1l0 0c-0.01,-0.04 -0.01,-0.07 -0.02,-0.11l0 0c-0.01,-0.03 -0.02,-0.07 -0.02,-0.1l0 0c-0.01,-0.04 -0.02,-0.07 -0.03,-0.11l0 0c-0.01,-0.03 -0.01,-0.07 -0.02,-0.1l0 0c-0.01,-0.03 -0.02,-0.07 -0.03,-0.1l0 0c-0.01,-0.04 -0.02,-0.07 -0.03,-0.1l0 0c-0.01,-0.04 -0.03,-0.07 -0.04,-0.11l0 0c-0.01,-0.03 -0.02,-0.06 -0.03,-0.1l0 0c-0.02,-0.03 -0.03,-0.06 -0.04,-0.1l0 0c-0.02,-0.03 -0.03,-0.06 -0.04,-0.1l0 0c-0.02,-0.03 -0.03,-0.06 -0.05,-0.09l0 -0.01c-0.01,-0.03 -0.03,-0.06 -0.05,-0.09l0 0c-0.01,-0.04 -0.03,-0.07 -0.04,-0.1l0 0c-0.02,-0.03 -0.04,-0.06 -0.06,-0.09l0 0c-0.01,-0.04 -0.03,-0.07 -0.05,-0.1l0 0c-0.02,-0.03 -0.04,-0.06 -0.06,-0.09l0 0c-0.02,-0.03 -0.04,-0.06 -0.06,-0.1l0 0c-0.02,-0.03 -0.04,-0.06 -0.06,-0.09l0 0c-0.02,-0.03 -0.04,-0.06 -0.06,-0.09 -0.02,-0.03 -0.05,-0.06 -0.07,-0.08 -0.02,-0.03 -0.04,-0.06 -0.07,-0.09l0 0c-0.02,-0.03 -0.04,-0.06 -0.07,-0.09 -0.02,-0.03 -0.05,-0.05 -0.07,-0.08 -0.03,-0.03 -0.05,-0.06 -0.08,-0.08l0 0c-0.03,-0.03 -0.05,-0.06 -0.08,-0.09l-17.09 -17.09c-1.72,-1.72 -4.53,-1.72 -6.25,0l0 0c-1.72,1.72 -1.72,4.53 0,6.24l9.56 9.56 -45.16 0c-2.43,0 -4.42,1.99 -4.42,4.42l0 0c0,2.43 1.99,4.41 4.42,4.41l45.16 0 -9.56 9.56c-1.72,1.72 -1.72,4.53 0,6.24l0 0c1.72,1.72 4.53,1.72 6.25,0l17.09 -17.09c0.03,-0.03 0.05,-0.06 0.08,-0.08l0 0c0.08,-0.08 0.15,-0.17 0.22,-0.26l0 0c0.1,-0.11 0.18,-0.23 0.26,-0.35l0 0c0.44,-0.67 0.68,-1.43 0.72,-2.21l0 0c0.01,-0.07 0.01,-0.15 0.01,-0.22l0 0z"/>
 </g>
</svg>
